<svg xmlns="http://www.w3.org/2000/svg" width="245.525" height="193.856" viewBox="0 0 245.525 193.856">
  <g id="cloud-computing" transform="translate(0 0)">
    <g id="Group_6" data-name="Group 6">
      <g id="Group_5" data-name="Group 5">
        <path id="Path_55" data-name="Path 55" d="M194.677,121.6A68.649,68.649,0,0,0,58.846,108.439c-.221,0-.44,0-.659,0a58.187,58.187,0,1,0,0,116.374H98.825a5.236,5.236,0,1,0,0-10.472H58.187a47.715,47.715,0,1,1,0-95.429c1.4,0,2.883.075,4.531.23a5.24,5.24,0,0,0,5.679-4.506,58.176,58.176,0,0,1,115.815,7.924c0,1.156-.086,2.347-.176,3.608L184,126.7a5.237,5.237,0,0,0,5.747,5.579,41.77,41.77,0,0,1,4.176-.211,41.134,41.134,0,1,1,0,82.268H151.187a5.236,5.236,0,1,0,0,10.472h42.732a51.605,51.605,0,0,0,.759-103.2Z" transform="translate(0 -53.873)" fill="#2b809a"/>
      </g>
    </g>
    <g id="Group_8" data-name="Group 8" transform="translate(82.356 24.61)">
      <g id="Group_7" data-name="Group 7" transform="translate(0 0)">
        <path id="Path_56" data-name="Path 56" d="M215.385,105.192a44.167,44.167,0,0,0-43.6,38.06,5.237,5.237,0,0,0,4.48,5.9,5.3,5.3,0,0,0,.714.049,5.236,5.236,0,0,0,5.181-4.529,33.656,33.656,0,0,1,33.221-29,5.236,5.236,0,0,0,0-10.472Z" transform="translate(-171.74 -105.192)" fill="#60abc2"/>
      </g>
    </g>
    <g id="Group_10" data-name="Group 10" transform="translate(98.451 108.428)">
      <g id="Group_9" data-name="Group 9">
        <path id="Path_57" data-name="Path 57" d="M256.665,299.2l-19.046-17.014a8.641,8.641,0,0,0-11.522,0L207.05,299.2a5.236,5.236,0,1,0,6.977,7.81l12.595-11.251v64.417a5.236,5.236,0,0,0,10.472,0V295.756l12.6,11.251a5.236,5.236,0,1,0,6.976-7.81Z" transform="translate(-205.302 -279.982)" fill="#e27d5f"/>
      </g>
    </g>
  </g>
</svg>
