<svg xmlns="http://www.w3.org/2000/svg" width="249.97" height="194.104" viewBox="0 0 249.97 194.104">
  <g id="responsive" transform="translate(0 0)" opacity="0.85">
    <path id="Path_62" data-name="Path 62" d="M0,0H38.428V20.129H0Z" transform="translate(90.673 146.255)" fill="#60abc2"/>
    <rect id="Rectangle_10" data-name="Rectangle 10" width="9.687" height="20.129" transform="translate(90.673 146.255)" fill="#4b8fa1"/>
    <path id="Path_3" data-name="Path 3" d="M217.368,398.763H124.949a2.5,2.5,0,0,0-2.49,2.491v12.484a2.5,2.5,0,0,0,2.49,2.491h92.418V398.763Z" transform="translate(-62.672 -232.866)" fill="#2b809a"/>
    <path id="Path_4" data-name="Path 4" d="M132.146,413.737V401.253a2.5,2.5,0,0,1,2.491-2.491h-9.688a2.5,2.5,0,0,0-2.49,2.491v12.484a2.5,2.5,0,0,0,2.49,2.491h9.687A2.5,2.5,0,0,1,132.146,413.737Z" transform="translate(-62.672 -232.865)" fill="#1e6b80"/>
    <path id="Path_5" data-name="Path 5" d="M217.285,58.964H2.491A2.5,2.5,0,0,0,0,61.455V203.217a2.5,2.5,0,0,0,2.491,2.491H154.7V131.125a3.422,3.422,0,0,1,3.418-3.418h61.662V61.455A2.5,2.5,0,0,0,217.285,58.964Z" transform="translate(0 -58.964)" fill="#2b809a"/>
    <path id="Path_6" data-name="Path 6" d="M22.4,212.567a1.577,1.577,0,0,0,1.558,1.588H172.239v-54.4c0-2,1.449,2.5,3.413,2.5h53.023V109H22.4Z" transform="translate(-15.648 -90.485)" fill="#fff"/>
    <path id="Path_7" data-name="Path 7" d="M32.084,212.721V109H22.4V212.721a1.549,1.549,0,0,0,1.494,1.591h9.688A1.549,1.549,0,0,1,32.084,212.721Z" transform="translate(-15.462 -90.642)" fill="#d9eafc"/>
    <circle id="Ellipse_8" data-name="Ellipse 8" cx="6.725" cy="6.725" r="6.725" transform="translate(103.164 130.267)" fill="#e27d5f"/>
    <path id="Path_8" data-name="Path 8" d="M287.98,223.146H261.9a1.469,1.469,0,0,0-1.465,1.465v29.117a1.469,1.469,0,0,0,1.465,1.465H287.98Z" transform="translate(-133.283 -142.989)" fill="#e8a87c"/>
    <path id="Path_10" data-name="Path 10" d="M198.893,163.748h22.76V131.827a2.448,2.448,0,0,0-2.441-2.441H82.123a2.448,2.448,0,0,0-2.441,2.441v32.479a2.448,2.448,0,0,0,2.441,2.441H195.5A3.42,3.42,0,0,1,198.893,163.748Z" transform="translate(-40.779 -93.305)" fill="#e8a87c"/>
    <path id="Path_12" data-name="Path 12" d="M227.118,84.983H23.954A1.562,1.562,0,0,0,22.4,86.541V97.713h206.28V86.541A1.562,1.562,0,0,0,227.118,84.983Z" transform="translate(-15.648 -78.691)" fill="#c38d9d"/>
    <g id="Group_2" data-name="Group 2" transform="translate(38.977 80.564)">
      <path id="Path_14" data-name="Path 14" d="M124.589,231.3H83.5a3.662,3.662,0,0,1,0-7.323h41.094a3.662,3.662,0,0,1,0,7.323Z" transform="translate(-79.834 -223.979)" fill="#85cdca"/>
      <path id="Path_15" data-name="Path 15" d="M124.589,255.789H83.5a3.662,3.662,0,0,1,0-7.323h41.094a3.662,3.662,0,0,1,0,7.323Z" transform="translate(-79.834 -236.511)" fill="#85cdca"/>
      <path id="Path_16" data-name="Path 16" d="M124.589,280.276H83.5a3.662,3.662,0,1,1,0-7.323h41.094a3.662,3.662,0,1,1,0,7.323Z" transform="translate(-79.834 -249.043)" fill="#85cdca"/>
      <path id="Path_17" data-name="Path 17" d="M211.548,231.3H190.4a3.662,3.662,0,0,1,0-7.323h21.153a3.662,3.662,0,0,1,0,7.323Z" transform="translate(-134.543 -223.979)" fill="#85cdca"/>
      <path id="Path_18" data-name="Path 18" d="M211.548,255.789H190.4a3.662,3.662,0,0,1,0-7.323h21.153a3.662,3.662,0,0,1,0,7.323Z" transform="translate(-134.543 -236.511)" fill="#85cdca"/>
      <path id="Path_19" data-name="Path 19" d="M211.548,280.276H190.4a3.662,3.662,0,1,1,0-7.323h21.153a3.662,3.662,0,1,1,0,7.323Z" transform="translate(-134.543 -249.043)" fill="#85cdca"/>
    </g>
    <path id="Path_20" data-name="Path 20" d="M407.712,198.768a3.917,3.917,0,0,1,3.906,3.906V320.711a3.917,3.917,0,0,1-3.906,3.906h-87.95a3.917,3.917,0,0,1-3.906-3.906V202.674a3.917,3.917,0,0,1,3.906-3.906Z" transform="translate(-161.648 -130.513)" fill="#2b809a"/>
    <path id="Path_21" data-name="Path 21" d="M335.119,321.842a2.559,2.559,0,0,1-2.552-2.552V216.732a2.559,2.559,0,0,1,2.552-2.552h77.947a2.56,2.56,0,0,1,2.552,2.552V319.29a2.559,2.559,0,0,1-2.552,2.552Z" transform="translate(-172.003 -140.737)" fill="#fff"/>
    <path id="Path_22" data-name="Path 22" d="M342.694,319.29V216.732a2.559,2.559,0,0,1,2.552-2.552H335.119a2.559,2.559,0,0,0-2.552,2.552V319.29a2.559,2.559,0,0,0,2.552,2.552h10.127A2.559,2.559,0,0,1,342.694,319.29Z" transform="translate(-172.003 -140.737)" fill="#d9eafc"/>
    <path id="Path_23" data-name="Path 23" d="M402.008,439.012a2.448,2.448,0,0,1-2.441-2.441v-.95a2.448,2.448,0,0,1,2.441-2.441h9.141a2.448,2.448,0,0,1,2.441,2.441v.95a2.448,2.448,0,0,1-2.441,2.441Z" transform="translate(-204.49 -249.48)" fill="#e27d5f"/>
    <path id="Path_24" data-name="Path 24" d="M415.618,224.027v-7.295a2.56,2.56,0,0,0-2.552-2.552H335.119a2.559,2.559,0,0,0-2.552,2.552v7.295Z" transform="translate(-172.003 -140.737)" fill="#c38d9d"/>
    <g id="Group_3" data-name="Group 3" transform="translate(181.787 122.529)">
      <path id="Path_26" data-name="Path 26" d="M409.287,317.256H376.006a3.662,3.662,0,0,1,0-7.323h33.282a3.662,3.662,0,0,1,0,7.323Z" transform="translate(-372.344 -309.933)" fill="#85cdca"/>
      <path id="Path_27" data-name="Path 27" d="M409.287,340.383H376.006a3.662,3.662,0,0,1,0-7.323h33.282a3.662,3.662,0,1,1,0,7.323Z" transform="translate(-372.344 -321.769)" fill="#85cdca"/>
      <path id="Path_28" data-name="Path 28" d="M409.287,363.508H376.006a3.662,3.662,0,0,1,0-7.323h33.282a3.662,3.662,0,0,1,0,7.323Z" transform="translate(-372.344 -333.604)" fill="#85cdca"/>
    </g>
    <path id="Path_29" data-name="Path 29" d="M412.378,268.59a2.448,2.448,0,0,1-2.441,2.441H350.542a2.448,2.448,0,0,1-2.441-2.441V248.454a2.448,2.448,0,0,1,2.441-2.441h59.395a2.448,2.448,0,0,1,2.441,2.441Z" transform="translate(-178.15 -154.692)" fill="#e8a87c"/>
    <path id="Path_31" data-name="Path 31" d="M412.8,398.2a2.448,2.448,0,0,1-2.441,2.441h-41.82A2.448,2.448,0,0,1,366.1,398.2v-8.256a2.448,2.448,0,0,1,2.441-2.441h41.82a2.448,2.448,0,0,1,2.441,2.441V398.2Z" transform="translate(-187.362 -227.105)" fill="#e8a87c"/>
  </g>
</svg>
