<svg xmlns="http://www.w3.org/2000/svg" width="208.483" height="194.105" viewBox="0 0 208.483 194.105">
  <g id="coding" transform="translate(0 0)">
    <path id="Path_33" data-name="Path 33" d="M236.338,473.413H150.069a14.379,14.379,0,0,1,14.378-14.378h57.512a14.378,14.378,0,0,1,14.378,14.378" transform="translate(-88.962 -279.308)" fill="#c64628"/>
    <path id="Path_34" data-name="Path 34" d="M244.53,417.17H194.207l7.189-28.756h35.945Z" transform="translate(-115.127 -237.443)" fill="#0a74d1"/>
    <path id="Path_35" data-name="Path 35" d="M208.483,139.869H0V30.236A12.581,12.581,0,0,1,12.581,17.655H195.9a12.581,12.581,0,0,1,12.581,12.581V139.869Z" transform="translate(0 -17.655)" fill="#16181a"/>
    <path id="Path_36" data-name="Path 36" d="M195.9,346.549H12.581A12.581,12.581,0,0,1,0,333.968V317.793H208.483v16.175A12.581,12.581,0,0,1,195.9,346.549" transform="translate(0 -195.579)" fill="#c64628"/>
    <g id="Group_4" data-name="Group 4" transform="translate(33.485 14.336)">
      <path id="Path_37" data-name="Path 37" d="M348.823,272.016H294.9a3.595,3.595,0,1,1,0-7.189h53.918a3.595,3.595,0,0,1,0,7.189" transform="translate(-210.176 -178.516)" fill="#0a74d1"/>
      <path id="Path_38" data-name="Path 38" d="M110.16,219.05H74.215a3.595,3.595,0,1,1,0-7.189H110.16a3.595,3.595,0,0,1,0,7.189" transform="translate(-70.62 -147.117)" fill="#0a74d1"/>
      <path id="Path_51" data-name="Path 51" d="M110.16,219.05H74.215a3.595,3.595,0,1,1,0-7.189H110.16a3.595,3.595,0,0,1,0,7.189" transform="translate(-70.62 -168.699)" fill="#0a74d1"/>
      <path id="Path_52" data-name="Path 52" d="M96.98,219.05H73.016c-1.325,0-2.4-1.61-2.4-3.595s1.071-3.595,2.4-3.595H96.98c1.325,0,2.4,1.61,2.4,3.595s-1.071,3.595-2.4,3.595" transform="translate(-70.62 -190.28)" fill="#0a74d1"/>
      <path id="Path_54" data-name="Path 54" d="M90.055,219.05H72.387c-.977,0-1.767-1.61-1.767-3.595s.79-3.595,1.767-3.595H90.055c.977,0,1.767,1.61,1.767,3.595s-.79,3.595-1.767,3.595" transform="translate(-34.154 -190.28)" fill="#ed7300"/>
      <path id="Path_53" data-name="Path 53" d="M123.34,219.05H75.413c-2.651,0-4.793-1.61-4.793-3.595s2.142-3.595,4.793-3.595H123.34c2.651,0,4.793,1.61,4.793,3.595s-2.142,3.595-4.793,3.595" transform="translate(-70.62 -211.861)" fill="#0a74d1"/>
      <path id="Path_39" data-name="Path 39" d="M304.685,219.05H250.767a3.595,3.595,0,1,1,0-7.189h53.918a3.595,3.595,0,1,1,0,7.189" transform="translate(-184.01 -147.117)" fill="#0a74d1"/>
      <path id="Path_40" data-name="Path 40" d="M206.629,219.079a3.579,3.579,0,0,1-1.366-.287,3.589,3.589,0,1,1,3.918-5.86,3.595,3.595,0,0,1-2.552,6.147" transform="translate(-152.39 -147.146)" fill="#0a74d1"/>
      <path id="Path_41" data-name="Path 41" d="M167.957,272.017H118.083a3.606,3.606,0,0,1,0-7.19h49.874a3.606,3.606,0,0,1,0,7.19" transform="translate(-96.785 -178.516)" fill="#ed7300"/>
      <path id="Path_42" data-name="Path 42" d="M74.215,272.032a3.579,3.579,0,0,1-1.366-.287,4.147,4.147,0,0,1-1.186-.755,3.7,3.7,0,0,1-1.042-2.552,3.579,3.579,0,0,1,.287-1.366,3.467,3.467,0,0,1,3.986-2.156,2.183,2.183,0,0,1,.687.216,2.047,2.047,0,0,1,.611.323c.212.144.4.287.575.431a3.722,3.722,0,0,1,.755,1.186,3.58,3.58,0,0,1,.287,1.366,3.714,3.714,0,0,1-1.042,2.552c-.18.144-.363.287-.575.431a2.035,2.035,0,0,1-.611.323,2.193,2.193,0,0,1-.687.216,4.326,4.326,0,0,1-.68.072" transform="translate(-70.621 -178.532)" fill="#0a74d1"/>
      <path id="Path_43" data-name="Path 43" d="M427.319,219.046a4.32,4.32,0,0,1-.683-.072,2.161,2.161,0,0,1-.683-.216,2.822,2.822,0,0,1-.651-.323c-.176-.144-.356-.287-.535-.431a3.646,3.646,0,0,1,0-5.1l.535-.431a2.806,2.806,0,0,1,.651-.323,2.175,2.175,0,0,1,.683-.216,3.592,3.592,0,0,1,3.235.97c.144.18.287.36.431.575a3.8,3.8,0,0,1,.535,1.294,4.02,4.02,0,0,1,.075.683,4.907,4.907,0,0,1-.075.719,2.158,2.158,0,0,1-.212.647,2.859,2.859,0,0,1-.323.647l-.431.539c-.18.144-.363.287-.539.431a2.785,2.785,0,0,1-.647.323,2.193,2.193,0,0,1-.687.216,4.242,4.242,0,0,1-.68.073" transform="translate(-288.672 -147.113)" fill="#ed7300"/>
      <path id="Path_44" data-name="Path 44" d="M348.823,113.119H294.9a3.595,3.595,0,1,1,0-7.189h53.918a3.595,3.595,0,0,1,0,7.189" transform="translate(-210.176 -84.321)" fill="#0a74d1"/>
      <path id="Path_45" data-name="Path 45" d="M374.988,166.085H339.043a3.595,3.595,0,1,1,0-7.189h35.945a3.595,3.595,0,1,1,0,7.189" transform="translate(-257.922 -115.719)" fill="#0a74d1"/>
      <path id="Path_46" data-name="Path 46" d="M257.956,166.085h-7.189a3.595,3.595,0,1,1,0-7.189h7.189a3.595,3.595,0,1,1,0,7.189" transform="translate(-200.078 -115.719)" fill="#ed7300"/>
      <path id="Path_47" data-name="Path 47" d="M304.685,60.154H250.767a3.595,3.595,0,0,1,0-7.189h53.918a3.595,3.595,0,0,1,0,7.189" transform="translate(-184.01 -52.923)" fill="#0a74d1"/>
      <path id="Path_48" data-name="Path 48" d="M427.319,60.15a4.323,4.323,0,0,1-.683-.072,2.161,2.161,0,0,1-.683-.216,2.822,2.822,0,0,1-.651-.323c-.176-.144-.356-.287-.535-.431a3.646,3.646,0,0,1,0-5.1l.535-.431a2.806,2.806,0,0,1,.651-.323,2.175,2.175,0,0,1,.683-.216,3.592,3.592,0,0,1,3.235.97c.144.18.287.36.431.575a3.8,3.8,0,0,1,.535,1.294,4.02,4.02,0,0,1,.075.683,4.907,4.907,0,0,1-.075.719,2.158,2.158,0,0,1-.212.647,2.859,2.859,0,0,1-.323.647l-.431.539c-.18.144-.363.287-.539.431a2.784,2.784,0,0,1-.647.323,2.193,2.193,0,0,1-.687.216,4.292,4.292,0,0,1-.68.072" transform="translate(-288.672 -52.918)" fill="#ed7300"/>
      <path id="Path_49" data-name="Path 49" d="M259.595,113.136a3.774,3.774,0,0,1-2.552-1.042,4.163,4.163,0,0,1-.755-1.186,3.388,3.388,0,0,1,0-2.731,4.146,4.146,0,0,1,.755-1.186,3.684,3.684,0,0,1,3.231-.97,2.183,2.183,0,0,1,.687.216,2.047,2.047,0,0,1,.611.323,3.712,3.712,0,0,1,.539.431,3.6,3.6,0,0,1,0,5.1,3.71,3.71,0,0,1-.539.431,2.033,2.033,0,0,1-.611.323,2.193,2.193,0,0,1-.687.216,4.281,4.281,0,0,1-.679.072" transform="translate(-185.097 -84.337)" fill="#ed7300"/>
      <path id="Path_50" data-name="Path 50" d="M303.733,166.151a3.7,3.7,0,0,1-2.552-1.042,3.609,3.609,0,1,1,6.147-2.552,4.444,4.444,0,0,1-.075.719,2.16,2.16,0,0,1-.212.647,2.858,2.858,0,0,1-.323.647l-.431.539a3.713,3.713,0,0,1-2.552,1.042" transform="translate(-232.625 -115.785)" fill="#0a74d1"/>
    </g>
  </g>
</svg>
