<svg xmlns="http://www.w3.org/2000/svg" xmlns:xlink="http://www.w3.org/1999/xlink" width="272.776" height="211.809" viewBox="0 0 272.776 211.809">
  <defs>
    <linearGradient id="linear-gradient" x1="0.5" x2="0.5" y2="1" gradientUnits="objectBoundingBox">
      <stop offset="0" stop-color="#3361db"/>
      <stop offset="1" stop-color="#439eef"/>
    </linearGradient>
  </defs>
  <g id="Deploy_Icon" data-name="Deploy Icon" transform="translate(-1366.006 -1314.288)">
    <path id="Border" d="M224.578,266.55H53.434A53.438,53.438,0,0,1,38.874,161.7,39,39,0,0,1,86.99,133.461a83.147,83.147,0,0,1,153.1,39.267,48.192,48.192,0,0,1-15.51,93.822ZM76.7,144.428a26.675,26.675,0,0,0-26.39,23.136,6.172,6.172,0,0,1-4.918,5.252,41.093,41.093,0,0,0,8.043,81.391H224.579a35.851,35.851,0,0,0,8.117-70.771,6.171,6.171,0,0,1-4.78-5.957,70.8,70.8,0,0,0-132.8-33.548,6.17,6.17,0,0,1-7.852,2.678A26.463,26.463,0,0,0,76.7,144.428Z" transform="translate(1366 1219.311)" fill="#c64628"/>
    <path id="Fill" d="M223.437,261.013a40.761,40.761,0,0,0,9.223-80.465A74.667,74.667,0,0,0,92.621,145.163a31.817,31.817,0,0,0-44.158,25.043,45.846,45.846,0,0,0,8.965,90.806Z" transform="translate(1364.495 1216.288)" fill="url(#linear-gradient)"/>
    <path id="Arrow" d="M263.977,301.933,242.219,282.5a9.871,9.871,0,0,0-13.162,0L207.3,301.933a5.982,5.982,0,1,0,7.97,8.922L229.656,298v73.59a5.982,5.982,0,1,0,11.963,0V298l14.388,12.853a5.981,5.981,0,1,0,7.969-8.922Z" transform="translate(1269.02 1148.524)" fill="#ed7300"/>
    <g id="Reflection" transform="translate(1471.47 1332.84)">
      <g id="Group_7" data-name="Group 7">
        <path id="Path_56" data-name="Path 56" d="M211.5,102.9c-20.041,0-46.614,14.46-49.323,31.822-.358,2.293,1.479,4.4,4.1,4.718a5.54,5.54,0,0,0,.654.039,4.629,4.629,0,0,0,4.742-3.624c2.064-13.231,24.554-24.575,39.826-24.575,2.647,0,4.793-1.876,4.793-4.19S214.147,102.9,211.5,102.9Z" transform="translate(-162.132 -102.904)" fill="#4fa2eb"/>
      </g>
    </g>
  </g>
</svg>
