<svg xmlns="http://www.w3.org/2000/svg" width="55.917" height="57.724" viewBox="0 0 55.917 57.724">
  <g id="Plane" transform="translate(-11.473 5.264) rotate(-18)">
    <g id="shadow" transform="translate(29.092 26.442) rotate(30)" opacity="0.62">
      <g id="Group_12" data-name="Group 12" transform="translate(10.616 2.09)">
        <path id="Path_63" data-name="Path 63" d="M2.873,5.475a.918.918,0,0,1-1.3,0l-1.3-1.3a.918.918,0,0,1,0-1.3l2.6-2.6a.919.919,0,0,1,1.3,0l1.3,1.3a.918.918,0,0,1,0,1.3Z" transform="translate(13.805 13.804)"/>
        <path id="Path_64" data-name="Path 64" d="M2.873,5.475a.918.918,0,0,1-1.3,0l-1.3-1.3a.918.918,0,0,1,0-1.3l2.6-2.6a.919.919,0,0,1,1.3,0l1.3,1.3a.918.918,0,0,1,0,1.3Z" transform="translate(0 0)"/>
      </g>
      <g id="Group_13" data-name="Group 13" transform="translate(0 4.997)">
        <path id="Path_65" data-name="Path 65" d="M1.525,0C3.365,0,11.648.92,11.648.92s.92,8.283.92,10.123-1.841,1.841-2.761.92A56.368,56.368,0,0,1,6.126,6.442,56.369,56.369,0,0,1,.6,2.761C-.316,1.841-.316,0,1.525,0" transform="translate(0 14.69)"/>
        <path id="Path_66" data-name="Path 66" d="M2.429,0C5.19-.035,25.436.885,25.436.885s.85,20.247.885,23.008-2.542,3.683-3.554,0S18.074,8.248,18.074,8.248,5.231,4.184,2.424,3.552C-1.253,2.726-.332.037,2.429,0" transform="translate(0.936 0)"/>
      </g>
      <path id="Path_67" data-name="Path 67" d="M19.608,2.2C21.449.361,26.05-.559,26.97.361s0,5.522-1.841,7.362S7.644,24.289,7.644,24.289,1.662,28.43.282,27.05s2.761-7.362,2.761-7.362S17.767,4.042,19.608,2.2" transform="translate(4.924 0)"/>
      <g id="Group_14" data-name="Group 14" transform="translate(4.271 2.202)">
        <path id="Path_68" data-name="Path 68" d="M8.3.015s.46.46-3.681,4.6S.015,8.3.015,8.3s-.46-.46,3.681-4.6S8.3.015,8.3.015" transform="translate(0 17.471)"/>
        <path id="Path_69" data-name="Path 69" d="M0,.92A2.761,2.761,0,0,1,2.761,3.681H3.5a2.684,2.684,0,0,0,.18-.92A2.761,2.761,0,0,0,.92,0,2.68,2.68,0,0,0,0,.179Z" transform="translate(22.102 0)"/>
      </g>
    </g>
    <g id="airplane" transform="translate(21.436 0) rotate(30)">
      <g id="Group_12-2" data-name="Group 12" transform="translate(14.11 2.778)">
        <path id="Path_63-2" data-name="Path 63" d="M3.819,7.277a1.22,1.22,0,0,1-1.73,0L.36,5.548a1.22,1.22,0,0,1,0-1.73L3.819.359a1.222,1.222,0,0,1,1.73,0l1.73,1.73a1.22,1.22,0,0,1,0,1.73Z" transform="translate(18.348 18.348)" fill="#eb917c"/>
        <path id="Path_64-2" data-name="Path 64" d="M3.819,7.277a1.22,1.22,0,0,1-1.73,0L.36,5.548a1.22,1.22,0,0,1,0-1.73L3.819.359a1.222,1.222,0,0,1,1.73,0l1.73,1.73a1.22,1.22,0,0,1,0,1.73Z" transform="translate(0 0)" fill="#eb917c"/>
      </g>
      <g id="Group_13-2" data-name="Group 13" transform="translate(0 6.642)">
        <path id="Path_65-2" data-name="Path 65" d="M2.027,0C4.473,0,15.482,1.223,15.482,1.223s1.223,11.009,1.223,13.455-2.446,2.446-3.67,1.223S8.143,8.562,8.143,8.562,2.027,4.893.8,3.67-.42,0,2.027,0" transform="translate(0 19.525)" fill="#852008"/>
        <path id="Path_66-2" data-name="Path 66" d="M3.228,0c3.67-.048,30.58,1.176,30.58,1.176s1.13,26.91,1.177,30.58-3.378,4.9-4.724,0-6.238-20.8-6.238-20.8-17.07-5.4-20.8-6.241C-1.665,3.623-.442.049,3.228,0" transform="translate(1.244 0)" fill="#852008"/>
      </g>
      <path id="Path_67-2" data-name="Path 67" d="M26.062,2.926C28.508.48,34.624-.743,35.847.48s0,7.339-2.446,9.786S10.16,32.283,10.16,32.283s-7.951,5.5-9.786,3.67,3.67-9.786,3.67-9.786S23.615,5.373,26.062,2.926" transform="translate(6.545 0)" fill="#c64628"/>
      <g id="Group_14-2" data-name="Group 14" transform="translate(5.676 2.926)">
        <path id="Path_68-2" data-name="Path 68" d="M11.029.02s.612.612-4.893,6.116S.02,11.029.02,11.029s-.612-.612,4.893-6.116S11.029.02,11.029.02" transform="translate(0 23.221)" fill="#eb917c"/>
        <path id="Path_69-2" data-name="Path 69" d="M0,1.223a3.669,3.669,0,0,1,3.67,3.67h.985A3.567,3.567,0,0,0,4.893,3.67,3.669,3.669,0,0,0,1.223,0,3.562,3.562,0,0,0,0,.239Z" transform="translate(29.377 0)" fill="#eb917c"/>
      </g>
    </g>
  </g>
</svg>
