<svg xmlns="http://www.w3.org/2000/svg" width="37" height="67" viewBox="0 0 37 67">
  <g id="Mouse_Outer" data-name="Mouse Outer" fill="none">
    <path d="M18.5,0A18.5,18.5,0,0,1,37,18.5s-.606,7.438-.606,14.938S37,48.5,37,48.5a18.5,18.5,0,0,1-37,0s.692-7.562.692-15.062S0,18.5,0,18.5A18.5,18.5,0,0,1,18.5,0Z" stroke="none"/>
    <path d="M 18.5 5 C 14.89401245117188 5 11.50386619567871 6.404239654541016 8.95405387878418 8.954051971435547 C 6.453262329101563 11.4548454284668 5.054420471191406 14.76395416259766 5.001556396484375 18.29224395751953 C 5.126121520996094 19.70078659057617 5.692386627197266 26.48703384399414 5.692386627197266 33.43848037719727 C 5.692386627197266 40.40007019042969 5.124473571777344 47.29383087158203 5.001510620117188 48.70466613769531 C 5.053552627563477 52.23419189453125 6.452484130859375 55.54438018798828 8.95405387878418 58.04594802856445 C 11.50386619567871 60.59576034545898 14.89401245117188 62 18.5 62 C 22.10598754882813 62 25.49613380432129 60.59576034545898 28.04594802856445 58.04594802856445 C 30.55342864990234 55.5384635925293 31.95305633544922 52.21857070922852 31.99883651733398 48.67966461181641 C 31.89672660827637 47.34628677368164 31.39403915405273 40.426513671875 31.39403915405273 33.43848037719727 C 31.39403915405273 26.45999908447266 31.89534759521484 19.64870834350586 31.99880027770996 18.31759262084961 C 31.95219421386719 14.7799186706543 30.55265045166016 11.46075820922852 28.04594802856445 8.954051971435547 C 25.49613380432129 6.404239654541016 22.10598754882813 5 18.5 5 M 18.5 0 C 28.71726608276367 0 37 8.282733917236328 37 18.5 C 37 18.5 36.39403915405273 25.93848037719727 36.39403915405273 33.43848037719727 C 36.39403915405273 40.93848037719727 37 48.5 37 48.5 C 37 58.71726608276367 28.71726608276367 67 18.5 67 C 8.282733917236328 67 0 58.71726608276367 0 48.5 C 0 48.5 0.6923866271972656 40.93848037719727 0.6923866271972656 33.43848037719727 C 0.6923866271972656 25.93848037719727 0 18.5 0 18.5 C 0 8.282733917236328 8.282733917236328 0 18.5 0 Z" stroke="none" fill="#001d6e"/>
  </g>
</svg>
