<svg xmlns="http://www.w3.org/2000/svg" width="230" height="230" viewBox="0 0 230 230">
  <g id="cogwheel-outline" transform="translate(0.5 0.5)">
    <g id="Group_42" data-name="Group 42">
      <path id="Path_198" data-name="Path 198" d="M128.338,229h-27.68a10.663,10.663,0,0,1-10.652-9.634l-2.838-17.005a91.765,91.765,0,0,1-15.461-6.414L57.464,206.118a10.481,10.481,0,0,1-6.577,2.274,10.636,10.636,0,0,1-7.572-3.141L23.745,185.68a10.67,10.67,0,0,1-.711-14.353l10.02-14.035a91.509,91.509,0,0,1-6.414-15.458L9.384,138.956A10.582,10.582,0,0,1,0,128.338V100.662A10.67,10.67,0,0,1,9.634,90.006L26.639,87.16a91.768,91.768,0,0,1,6.41-15.454L22.882,57.464a10.573,10.573,0,0,1,.863-14.141L43.319,23.745a10.973,10.973,0,0,1,14.341-.719L71.714,33.05a91.265,91.265,0,0,1,15.454-6.41L90.04,9.388A10.6,10.6,0,0,1,100.662,0h27.68A10.677,10.677,0,0,1,139,9.627L141.84,26.64a91.58,91.58,0,0,1,15.45,6.41l14.247-10.171a10.48,10.48,0,0,1,6.573-2.267,10.631,10.631,0,0,1,7.568,3.133l19.571,19.578a10.662,10.662,0,0,1,.726,14.338L195.951,71.707a91.215,91.215,0,0,1,6.41,15.454l17.255,2.88A10.593,10.593,0,0,1,229,100.662v27.676a10.643,10.643,0,0,1-9.642,10.644l-17,2.842a91.428,91.428,0,0,1-6.41,15.461l10.171,14.24a10.592,10.592,0,0,1-.878,14.152l-19.567,19.567a10.969,10.969,0,0,1-14.353.715l-14.035-10.016a91.4,91.4,0,0,1-15.45,6.414l-2.883,17.259A10.6,10.6,0,0,1,128.338,229Zm-56.9-41.294a3.754,3.754,0,0,1,1.85.484,84.323,84.323,0,0,0,18.258,7.575,3.785,3.785,0,0,1,2.7,3.02L97.5,218.371a3.243,3.243,0,0,0,3.156,3.061h27.68a3.153,3.153,0,0,0,3.118-2.812l3.3-19.836a3.779,3.779,0,0,1,2.7-3.016,84.3,84.3,0,0,0,18.246-7.576,3.774,3.774,0,0,1,4.049.223l16.161,11.545a3.1,3.1,0,0,0,4.4-.061l19.575-19.575a3.124,3.124,0,0,0,.219-4.2l-11.7-16.359a3.785,3.785,0,0,1-.223-4.052,83.376,83.376,0,0,0,7.568-18.247,3.783,3.783,0,0,1,3.023-2.705l19.59-3.266a3.236,3.236,0,0,0,3.062-3.148V100.669a3.157,3.157,0,0,0-2.812-3.122l-19.836-3.3a3.788,3.788,0,0,1-3.023-2.705A83.33,83.33,0,0,0,188.189,73.3a3.787,3.787,0,0,1,.223-4.053l11.553-16.169a3.2,3.2,0,0,0-.068-4.39L180.323,29.11a3.211,3.211,0,0,0-4.193-.216L159.76,40.6a3.78,3.78,0,0,1-4.049.223,84.106,84.106,0,0,0-18.247-7.576,3.781,3.781,0,0,1-2.7-3.02L131.5,10.641a3.22,3.22,0,0,0-3.163-3.072h-27.68a3.116,3.116,0,0,0-3.122,2.812L94.244,30.212a3.779,3.779,0,0,1-2.7,3.02A83.7,83.7,0,0,0,73.3,40.807a3.784,3.784,0,0,1-4.053-.223L53.07,29.031a3.106,3.106,0,0,0-4.4.068L29.1,48.674a3.112,3.112,0,0,0-.208,4.189l11.7,16.374a3.787,3.787,0,0,1,.223,4.053,84.05,84.05,0,0,0-7.576,18.243,3.78,3.78,0,0,1-3.02,2.7L10.629,97.5a3.21,3.21,0,0,0-3.061,3.164v27.676a3.1,3.1,0,0,0,2.8,3.114l19.84,3.3a3.779,3.779,0,0,1,3.02,2.705,84.33,84.33,0,0,0,7.576,18.254,3.773,3.773,0,0,1-.223,4.045L29.038,175.918a3.2,3.2,0,0,0,.057,4.4L48.67,199.89a3.19,3.19,0,0,0,4.193.216l16.37-11.7A3.813,3.813,0,0,1,71.434,187.706Zm43.07-27.911a45.3,45.3,0,1,1,45.3-45.3A45.353,45.353,0,0,1,114.5,159.794Zm0-83.036A37.734,37.734,0,1,0,152.238,114.5,37.782,37.782,0,0,0,114.5,76.758Z" fill="#0d60c8" stroke="#0D78D6" stroke-width="1"/>
    </g>
  </g>
</svg>
