<svg xmlns="http://www.w3.org/2000/svg" width="552.054" height="425.183" viewBox="0 0 552.054 425.183">
  <g id="cogs" transform="translate(6.506 6.5)" opacity="0.29">
    <path id="Path_74" data-name="Path 74" d="M219.47,155.189a101.38,101.38,0,0,1-9.068,21.531l10.944,13.8a11.329,11.329,0,0,1-.849,15.009l-18.851,18.851a11.28,11.28,0,0,1-15.009.848l-13.714-10.855a99.639,99.639,0,0,1-22.38,9.47l-2.055,17.645A11.3,11.3,0,0,1,137.275,251.5H110.606a11.3,11.3,0,0,1-11.212-10.006l-1.966-17.02A100.784,100.784,0,0,1,73.44,214.78l-13.267,10.5a11.329,11.329,0,0,1-15.009-.849L26.312,205.578a11.28,11.28,0,0,1-.849-15.009L35.783,177.48a98.446,98.446,0,0,1-9.872-23.586l-15.9-1.832A11.3,11.3,0,0,1,0,140.85V114.181a11.3,11.3,0,0,1,10.006-11.212l15.68-1.832a99.083,99.083,0,0,1,9.47-23.318l-9.649-12.2a11.329,11.329,0,0,1,.849-15.009L45.163,31.808a11.28,11.28,0,0,1,15.009-.849L72.01,40.34A99.418,99.418,0,0,1,96.535,30.065l1.787-15.322A11.3,11.3,0,0,1,109.534,4.737H136.2a11.3,11.3,0,0,1,11.212,10.006L149.2,30.065A99,99,0,0,1,174.352,40.7l12.285-9.738a11.329,11.329,0,0,1,15.009.849L220.5,50.659a11.28,11.28,0,0,1,.849,15.009l-10.274,13a97.177,97.177,0,0,1,9.292,23.542l16.439,1.876A11.3,11.3,0,0,1,246.808,115.3v26.669A11.3,11.3,0,0,1,236.8,153.179ZM122.846,83.046a44.09,44.09,0,1,0,44.09,44.09A44.154,44.154,0,0,0,122.846,83.046Z" transform="translate(292.24 -4.737)" fill="none" stroke="#0a74d1" stroke-width="13"/>
    <path id="Path_75" data-name="Path 75" d="M506.725,318.349,520.8,306.467a11.13,11.13,0,0,1,14.83.4l7.773,7.281a80.341,80.341,0,0,1,20.727-6.7l2.188-10.721a11.234,11.234,0,0,1,11.883-8.934l18.36,1.563a11.186,11.186,0,0,1,10.23,10.766l.357,10.9a80.564,80.564,0,0,1,19.79,10.408l9.291-6.165a11.161,11.161,0,0,1,14.7,2.1L662.8,331.527a11.131,11.131,0,0,1-.4,14.831l-8.131,8.666a83.255,83.255,0,0,1,5.986,19.834l11.614,2.367a11.234,11.234,0,0,1,8.934,11.883l-1.563,18.36a11.186,11.186,0,0,1-10.766,10.23l-12.553.4a82.037,82.037,0,0,1-8.89,16.975l7.013,10.587a11.161,11.161,0,0,1-2.1,14.7L637.878,472.24a11.131,11.131,0,0,1-14.831-.4l-9.2-8.621a80.665,80.665,0,0,1-18.9,6.165l-2.547,12.6a11.234,11.234,0,0,1-11.882,8.934l-18.36-1.563a11.186,11.186,0,0,1-10.23-10.766l-.4-12.33a82.574,82.574,0,0,1-18.9-9.559l-10.141,6.7a11.161,11.161,0,0,1-14.7-2.1l-11.882-14.071a11.131,11.131,0,0,1,.4-14.831l8.175-8.666a80.443,80.443,0,0,1-6.433-19.924l-11.168-2.278a11.234,11.234,0,0,1-8.934-11.883l1.563-18.36a11.186,11.186,0,0,1,10.766-10.23L501.5,360.7a81.119,81.119,0,0,1,9.336-18.4l-6.12-9.2A11.1,11.1,0,0,1,506.725,318.349Zm69.195,106.138a36.088,36.088,0,1,0-32.922-39A36.093,36.093,0,0,0,575.919,424.487Z" transform="translate(-477.921 -161.33)" fill="none" stroke="#0a74d1" stroke-width="13"/>
    <path id="Path_76" data-name="Path 76" d="M336.9,623.821a11.159,11.159,0,0,1,10.006,10.989l.134,11.3a11.134,11.134,0,0,1-9.738,11.213L329,658.4a64.455,64.455,0,0,1-5.9,14.429l5.361,6.611a11.138,11.138,0,0,1-.67,14.831l-7.907,8.085a11.153,11.153,0,0,1-14.831,1.028l-6.656-5.137a65.249,65.249,0,0,1-14.831,6.477l-.893,8.577A11.16,11.16,0,0,1,271.685,723.3l-11.3.134a11.133,11.133,0,0,1-11.212-9.738l-1.027-8.13a67.118,67.118,0,0,1-16.082-6.254l-6.254,5.048a11.138,11.138,0,0,1-14.831-.67l-8.085-7.907a11.153,11.153,0,0,1-1.028-14.831l4.781-6.21a64.785,64.785,0,0,1-6.79-15.635l-7.415-.759a11.16,11.16,0,0,1-10.006-10.989l-.134-11.3a11.132,11.132,0,0,1,9.738-11.212l7.237-.938a67.3,67.3,0,0,1,6.12-15.635l-4.512-5.539a11.138,11.138,0,0,1,.67-14.831l7.906-8.085a11.152,11.152,0,0,1,14.831-1.027l5.406,4.154a65.7,65.7,0,0,1,16.26-7.058l.715-7.013a11.159,11.159,0,0,1,10.989-10.006l11.3-.134a11.134,11.134,0,0,1,11.213,9.738l.893,6.969a67.473,67.473,0,0,1,16.841,6.879l5.584-4.556a11.139,11.139,0,0,1,14.831.67l8.13,7.952a11.152,11.152,0,0,1,1.027,14.83l-4.78,6.165a65.382,65.382,0,0,1,6.388,15.635Zm-72.948-12.776a29.4,29.4,0,1,0,29.751,29.036A29.42,29.42,0,0,0,263.957,611.045Z" transform="translate(36.035 -311.258)" fill="none" stroke="#0a74d1" stroke-width="13"/>
  </g>
</svg>
